<?xml version="1.0" encoding="utf-8"?>
<!-- Generator: Adobe Illustrator 21.0.2, SVG Export Plug-In . SVG Version: 6.00 Build 0)  -->
<svg version="1.1" id="Layer_1" xmlns="http://www.w3.org/2000/svg" xmlns:xlink="http://www.w3.org/1999/xlink" x="0px" y="0px"
	 viewBox="0 0 1080 254" style="enable-background:new 0 0 1080 254;" xml:space="preserve">
<style type="text/css">
	.st0{fill:#FFFFFF;}
	.st1{fill:url(#SVGID_1_);}
	.st2{fill:#B3B3B3;}
	.st3{fill:url(#SVGID_2_);}
	.st4{fill:url(#SVGID_3_);}
</style>
<g>
	<g>
		<path class="st0" d="M452.4,89.2c12.9,0,23.7,4.4,32.3,13.3c8.6,8.9,13,21.2,13,36.8v68.6c0,3.2-2.6,5.8-5.8,5.8h-24.8
			c-3.2,0-5.8-2.6-5.8-5.8v-63.3c0-7.1-2-12.6-5.9-16.4c-4-3.8-9-5.7-15.1-5.7c-6.9,0-12.4,2.1-16.5,6.3c-4,4.2-6.1,10.4-6.1,18.7
			v60.4c0,3.2-2.6,5.8-5.8,5.8h-24.8c-3.2,0-5.8-2.6-5.8-5.8V98.4c0-3.2,2.6-5.8,5.8-5.8H412c3.2,0,5.8,2.6,5.8,5.8v5.6
			C425,94.2,436.5,89.2,452.4,89.2z"/>
		<path class="st0" d="M555.1,167.6c4.2,11.3,13.9,17,29.1,17c8.3,0,15.1-2.2,20.4-6.5c1.9-1.5,4.5-1.8,6.5-0.6l19.5,11.2
			c3.1,1.8,3.9,6.1,1.5,8.8c-11.7,13-27.9,19.5-48.5,19.5c-20.4,0-36.6-6.1-48.8-18.2c-12.2-12.1-18.3-27.4-18.3-45.8
			c0-18.2,6-33.5,18-45.7c12-12.2,27.5-18.3,46.4-18.3c17.6,0,32.3,6.1,44,18.3c11.7,12.2,17.6,27.4,17.6,45.7
			c0,3.3-0.2,6.5-0.6,9.5c-0.4,2.9-2.8,5-5.7,5L555.1,167.6L555.1,167.6L555.1,167.6z M554.3,140.5h52.1
			c-3.6-12.8-12.1-19.1-25.7-19.1C566.7,121.4,557.9,127.7,554.3,140.5z"/>
		<path class="st0" d="M692.7,127.9c0,2.4,2.1,4.4,6.2,5.9c4.1,1.5,9.1,3.1,14.9,4.6c5.8,1.5,11.6,3.5,17.4,5.9
			c5.8,2.4,10.8,6.4,14.9,12c4.1,5.6,6.2,12.6,6.2,21c0,13.1-4.8,23-14.5,29.7s-21.6,10.1-35.9,10.1c-23.1,0-39.5-7.9-49.3-23.6
			c-1.7-2.8-0.7-6.4,2.1-8l21.1-12c2.8-1.6,6.2-0.6,7.8,2.1c3.7,6.1,9.8,9.1,18.2,9.1c8.7,0,13.1-2.5,13.1-7.5
			c0-2.4-2.1-4.4-6.2-6.1c-4.1-1.6-9.1-3.2-14.9-4.7c-5.8-1.5-11.6-3.6-17.4-6.1c-5.8-2.5-10.8-6.4-14.9-11.7
			c-4.1-5.3-6.2-11.9-6.2-19.6c0-12.6,4.6-22.4,13.7-29.3c9.1-6.9,20.4-10.4,33.8-10.4c10,0,19.1,2.2,27.4,6.7
			c6.3,3.4,11.7,8,16.2,13.8c2.1,2.8,1.2,6.8-1.9,8.5l-20.7,11.2c-2.4,1.3-5.5,0.8-7.2-1.3c-3.6-4.5-8.2-6.8-13.7-6.8
			C696,121.2,692.7,123.5,692.7,127.9z"/>
		<path class="st0" d="M848.2,92.6h27.8c4,0,6.8,4,5.4,7.8l-40.5,109.6c-0.8,2.3-3,3.8-5.4,3.8h-33.2c-2.4,0-4.6-1.5-5.4-3.8
			l-40.6-109.6c-1.4-3.8,1.4-7.8,5.4-7.8h27.8c2.5,0,4.7,1.6,5.5,4l23.9,72.8l23.9-72.8C843.5,94.2,845.7,92.6,848.2,92.6z"/>
		<path class="st0" d="M986.3,92.6h24.8c3.2,0,5.8,2.6,5.8,5.8v109.6c0,3.2-2.6,5.8-5.8,5.8h-24.8c-3.2,0-5.8-2.6-5.8-5.8v-5.6
			c-8.6,9.9-20.6,14.8-36.1,14.8c-16,0-29.6-6.2-40.9-18.5c-11.3-12.4-17-27.5-17-45.4s5.7-33.1,17-45.4
			c11.3-12.4,25-18.5,40.9-18.5c15.5,0,27.5,4.9,36.1,14.8v-5.6C980.6,95.2,983.2,92.6,986.3,92.6z M930.9,174.6
			c5.3,5.3,12.3,8,20.8,8c8.6,0,15.5-2.7,20.8-8s8-12.5,8-21.6c0-9-2.7-16.2-8-21.6c-5.3-5.3-12.3-8-20.8-8c-8.6,0-15.5,2.7-20.8,8
			c-5.3,5.3-8,12.5-8,21.6C922.9,162.1,925.6,169.3,930.9,174.6z"/>
		<path class="st0" d="M1043.6,207.9V42.7c0-3.2,2.6-5.8,5.8-5.8h24.8c3.2,0,5.8,2.6,5.8,5.8v165.3c0,3.2-2.6,5.8-5.8,5.8h-24.8
			C1046.1,213.6,1043.6,211.1,1043.6,207.9z"/>
	</g>
	<g>
		
			<linearGradient id="SVGID_1_" gradientUnits="userSpaceOnUse" x1="257.1541" y1="-756.0632" x2="114.4141" y2="-596.4276" gradientTransform="matrix(1 0 0 -1 0 -512.4)">
			<stop  offset="0" style="stop-color:#FFFFFF"/>
			<stop  offset="1" style="stop-color:#B3B3B3"/>
		</linearGradient>
		<path class="st1" d="M267.5,226.4c-0.1,0.4-0.2,0.7-0.3,1.1c-1.6,5.5-4.5,10.7-8.7,15.1c-13.4,14.5-38.4,15.8-51.7,0
			c-6.1-7.3-12.3-14.6-18.4-21.9c-23.3-27.9-46.7-55.5-70-83.4c-1.9-2.3-3.6-4.3-5.5-6.6c-4.1-5.4-11.5-5.2-14.8-0.2
			c0.7-2.6,2.9-10.6,3.6-13.1c1.7-6.2,3.4-12.4,5.2-18.6c0.4-1.7,0.9-3.3,1.4-4.9c5.2-15,18.6-25.6,34.3-25.6
			c10.4,0,19.9,4.7,26.6,12.3c0.4,0.4,0.8,0.9,1.1,1.3c15.3,18.3,30.6,36.6,45.9,54.8c14.1,16.8,28.2,33.4,42.3,50.2
			C267.7,198,271.2,213,267.5,226.4z"/>
		<path class="st2" d="M103.3,127c0.7-2.4,1.2-4.2,1.5-5.3c1.8-6.4,3.4-13,5.2-19.4c0.5-1.7,1.6-5.4,2.1-7.1
			C116.6,81.9,128.7,71,145,71c9.3,0,17.8,3.6,24.4,9.7c-0.1-0.1-0.1-0.1-0.2-0.2c-6.7-7.6-15.9-13-26.4-13c-15.7,0-30.1,11-35.3,26
			c-0.5,1.6-1.4,3.9-1.9,5.5c-1.7,6.2-3.2,12.2-4.9,18.5c-0.7,2.5-1.8,10.5-2.5,13.1C98.9,129.4,101.5,127.5,103.3,127z"/>
		
			<linearGradient id="SVGID_2_" gradientUnits="userSpaceOnUse" x1="126.057" y1="-512.7231" x2="49.6058" y2="-765.6958" gradientTransform="matrix(1 0 0 -1 0 -512.4)">
			<stop  offset="0" style="stop-color:#FFFFFF"/>
			<stop  offset="1" style="stop-color:#B3B3B3"/>
		</linearGradient>
		<path class="st3" d="M169.2,80.6c-6.7-7.6-16.1-12.3-26.6-12.3c-15.7,0-29.1,10.7-34.3,25.6c-0.6,1.6-1,3.3-1.4,4.9
			c-1.7,6.2-3.4,12.4-5.2,18.6c-10,36-19.9,72-29.9,108c-5.9,21.1-25.3,32.3-45,27.5c-18.9-4.6-31-28.7-25.5-48.4
			C17.6,145.9,33.9,87.2,50.1,28.6c0.4-1.5,0.9-3,1.5-4.5c0.1-0.3,0.2-0.5,0.3-0.8c4-9.3,10.8-16.2,19-20c0.6-0.3,1.2-0.5,1.8-0.8
			c0.1,0,0.2-0.1,0.3-0.1c0.4-0.1,0.7-0.3,1.1-0.4c0.4-0.2,0.8-0.3,1.2-0.4c1.2-0.4,2.4-0.7,3.6-0.9C79.5,0.6,83.7,0,84.4,0
			c0.4,0,1,0,1.6,0c1.2,0,2.4,0.1,3.6,0.2c0.6,0.1,1.1,0.1,1.7,0.2s1.2,0.2,1.7,0.3c0.7,0.1,1.4,0.3,2.1,0.5
			c0.4,0.1,0.7,0.2,1.1,0.3c0.5,0.2,1,0.3,1.6,0.6c0.2,0.1,0.4,0.1,0.6,0.2c0.7,0.3,1.5,0.6,2.2,0.9c0.7,0.3,1.3,0.7,2,1
			c0.4,0.2,0.8,0.5,1.2,0.7l0.1,0.1c0.4,0.3,0.9,0.6,1.3,0.9l0,0l0,0c0.1,0.1,0.1,0.1,0.2,0.2c0.2,0.2,0.5,0.4,0.7,0.6
			c0.4,0.2,0.7,0.5,1.1,0.8c0.3,0.3,0.7,0.6,1,0.9c0.2,0.2,1.1,1.1,1.4,1.3c0.3,0.3,0.5,0.5,0.8,0.8c0.3,0.3,0.5,0.6,0.8,0.9
			c0.8,1,1.7,2,2.5,3c5.3,6.3,10.6,12.6,15.9,18.9C142.8,49,156,64.8,169.2,80.6z"/>
		
			<linearGradient id="SVGID_3_" gradientUnits="userSpaceOnUse" x1="223.2694" y1="-640.0535" x2="326.6269" y2="-513.9574" gradientTransform="matrix(1 0 0 -1 0 -512.4)">
			<stop  offset="0" style="stop-color:#FFFFFF"/>
			<stop  offset="1" style="stop-color:#B3B3B3"/>
		</linearGradient>
		<path class="st4" d="M316.6,49.6c-4.8,17.3-9.6,34.5-14.3,51.8c-0.3,1.2-0.7,2.4-1,3.6c-5,15.3-18.6,26.3-34.5,26.3
			c-20.2,0-36.5-17.6-36.5-39.4c0-4.1,0.6-8,1.6-11.7c4.7-17.2,9.5-34.4,14.3-51.6C252,7.5,271.5-3.7,291.1,1.1
			C310.1,5.8,322.1,29.8,316.6,49.6z"/>
	</g>
</g>
</svg>
